<svg width="34" height="29" viewBox="0 0 34 29" fill="none" xmlns="http://www.w3.org/2000/svg">
<mask id="path-1-inside-1_34_6710" fill="white">
<path fill-rule="evenodd" clip-rule="evenodd" d="M28.3514 2.46247C27.6104 1.61319 26.3473 1.49851 25.5303 2.20632L12.2292 13.7292L8.02426 8.90349C7.28383 8.05373 6.02164 7.93909 5.20509 8.64744L1.06952 12.235C0.252965 12.9433 0.191259 14.2064 0.931694 15.0562L9.78345 25.2149C10.0396 25.5089 10.3583 25.7149 10.6993 25.8293C11.4512 26.5508 12.6183 26.6147 13.3887 25.9473L32.1008 9.73675C32.9178 9.02894 32.9794 7.76666 32.2384 6.91739L28.3514 2.46247Z"/>
</mask>
<path fill-rule="evenodd" clip-rule="evenodd" d="M28.3514 2.46247C27.6104 1.61319 26.3473 1.49851 25.5303 2.20632L12.2292 13.7292L8.02426 8.90349C7.28383 8.05373 6.02164 7.93909 5.20509 8.64744L1.06952 12.235C0.252965 12.9433 0.191259 14.2064 0.931694 15.0562L9.78345 25.2149C10.0396 25.5089 10.3583 25.7149 10.6993 25.8293C11.4512 26.5508 12.6183 26.6147 13.3887 25.9473L32.1008 9.73675C32.9178 9.02894 32.9794 7.76666 32.2384 6.91739L28.3514 2.46247Z" fill="#FF874F"/>
<path d="M25.5303 2.20632L24.844 1.4505L24.844 1.4505L25.5303 2.20632ZM28.3514 2.46247L27.5977 3.08756L27.5977 3.08756L28.3514 2.46247ZM12.2292 13.7292L11.475 14.3538L12.1598 15.1397L12.9154 14.4851L12.2292 13.7292ZM8.02426 8.90349L8.77841 8.27893L8.77841 8.27893L8.02426 8.90349ZM5.20509 8.64744L4.51835 7.89203L5.20509 8.64744ZM1.06952 12.235L0.382786 11.4796L0.382785 11.4796L1.06952 12.235ZM0.931694 15.0562L1.68584 14.4316L0.931694 15.0562ZM9.78345 25.2149L10.5376 24.5903L10.5376 24.5903L9.78345 25.2149ZM10.6993 25.8293L11.3878 25.1358L11.2142 24.9693L10.9866 24.893L10.6993 25.8293ZM13.3887 25.9473L14.0749 26.7031L14.0749 26.7031L13.3887 25.9473ZM32.1008 9.73675L31.4145 8.98092L31.4145 8.98092L32.1008 9.73675ZM32.2384 6.91739L32.9921 6.2923L32.9921 6.2923L32.2384 6.91739ZM26.2165 2.96215C26.6191 2.61341 27.2326 2.66912 27.5977 3.08756L29.1051 1.83738C27.9881 0.557259 26.0755 0.383608 24.844 1.4505L26.2165 2.96215ZM12.9154 14.4851L26.2165 2.96215L24.844 1.4505L11.5429 12.9734L12.9154 14.4851ZM7.27012 9.52804L11.475 14.3538L12.9833 13.1047L8.77841 8.27893L7.27012 9.52804ZM5.89182 9.40286C6.29374 9.05419 6.90566 9.10977 7.27012 9.52804L8.77841 8.27893C7.662 6.99769 5.74954 6.82399 4.51835 7.89203L5.89182 9.40286ZM1.75625 12.9904L5.89182 9.40286L4.51835 7.89203L0.382786 11.4796L1.75625 12.9904ZM1.68584 14.4316C1.30989 14.0002 1.34165 13.3501 1.75625 12.9904L0.382785 11.4796C-0.835721 12.5366 -0.927373 14.4127 0.177546 15.6807L1.68584 14.4316ZM10.5376 24.5903L1.68584 14.4316L0.177546 15.6807L9.0293 25.8394L10.5376 24.5903ZM10.9866 24.893C10.8226 24.8379 10.6666 24.7384 10.5376 24.5903L9.0293 25.8394C9.41262 26.2794 9.89395 26.5919 10.412 26.7656L10.9866 24.893ZM12.7024 25.1914C12.3224 25.5207 11.7554 25.4885 11.3878 25.1358L10.0108 26.5227C11.1471 27.6131 12.9141 27.7087 14.0749 26.7031L12.7024 25.1914ZM31.4145 8.98092L12.7024 25.1914L14.0749 26.7031L32.787 10.4926L31.4145 8.98092ZM31.4847 7.54248C31.8606 7.97329 31.829 8.62187 31.4145 8.98092L32.787 10.4926C34.0066 9.436 34.0982 7.56003 32.9921 6.2923L31.4847 7.54248ZM27.5977 3.08756L31.4847 7.54248L32.9921 6.2923L29.105 1.83738L27.5977 3.08756Z" fill="#192829" mask="url(#path-1-inside-1_34_6710)"/>
</svg>
