<svg width="27" height="60" viewBox="0 0 27 60" fill="none" xmlns="http://www.w3.org/2000/svg">
<g clip-path="url(#clip0_34_7662)">
<path d="M25.0037 58.5025H4.60542C2.92533 58.5025 1.61091 57.1847 1.61091 55.5075C1.61091 53.8303 2.92533 52.5125 4.60542 52.5125H9.70498C12.2449 52.5125 14.3104 50.4559 14.3104 47.9201V33.4443H17.3049C17.7299 33.4443 18.1153 33.0749 18.1153 32.6456V26.2163L18.4316 26.0965C23.5608 24.1298 27.0099 19.0582 27.0099 13.4875C27 6.04992 20.9517 0 13.5 0C6.04832 0 0 6.04992 0 13.4775C0 18.9484 3.44912 24.02 8.58821 26.0965L8.89458 26.2263V32.5557C8.89458 32.985 9.27013 33.3544 9.70498 33.3544H12.6995V47.8303C12.6995 49.5075 11.3851 50.8253 9.70498 50.8253H4.60542C2.06552 50.8253 0 52.8819 0 55.4176C0 57.9534 2.06552 60.01 4.60542 60.01H25.0037C25.4286 60.01 25.8042 59.6406 25.8042 59.2113C25.8042 58.8918 25.4286 58.5125 25.0037 58.5125V58.5025ZM1.61091 13.4775C1.61091 6.86855 6.98719 1.4975 13.5988 1.4975C20.2105 1.4975 25.5868 6.86855 25.5868 13.4775C25.5868 20.0865 20.2105 25.4576 13.5988 25.4576C6.98719 25.4576 1.61091 20.1963 1.61091 13.4775ZM10.5055 31.8469V26.6556L11.0886 26.7654C12.6303 27.0549 14.3796 27.0549 16.0103 26.7654L16.5933 26.6656V31.8469H10.5055Z" fill="#192829"/>
</g>
<defs>
<clipPath id="clip0_34_7662">
<rect width="27" height="60" fill="white"/>
</clipPath>
</defs>
</svg>
