<svg width="31" height="29" viewBox="0 0 31 29" fill="none" xmlns="http://www.w3.org/2000/svg">
  <path d="M15.5 27.7353C15.6397 27.7353 15.7807 27.6981 15.9084 27.6218L15.9091 27.6214C20.1993 25.0682 23.6078 22.324 26.0528 19.473C29.0267 16.0046 30.5 12.4517 30.5 8.90858C30.5 6.09148 29.3574 3.59608 27.4003 2.03682C25.5964 0.600196 23.3558 0.148133 21.2455 0.776668C18.994 1.44779 17.164 2.96046 15.938 5.18746L15.5 5.98313L15.062 5.18746C13.836 2.96046 12.006 1.44779 9.75452 0.776668C7.6442 0.148133 5.40359 0.600196 3.59965 2.03682C1.64258 3.59615 0.5 6.09152 0.5 8.90858C0.5 12.4517 1.97331 16.0046 4.94719 19.473C7.39222 22.324 10.8007 25.0682 15.0909 27.6214L15.0916 27.6218C15.2193 27.6981 15.3603 27.7353 15.5 27.7353Z" fill="white" stroke="#192829"/>
</svg>