<svg width="31" height="29" viewBox="0 0 31 29" fill="none" xmlns="http://www.w3.org/2000/svg">
  <path d="M15.5 27.9706C15.6397 27.9706 15.7807 27.9333 15.9084 27.8571L15.9091 27.8566C20.1993 25.3034 23.6078 22.5593 26.0528 19.7083C29.0267 16.2399 30.5 12.687 30.5 9.14387C30.5 6.32677 29.3574 3.83137 27.4003 2.27211C25.5964 0.835487 23.3558 0.383423 21.2455 1.01196C18.994 1.68308 17.164 3.19576 15.938 5.42275L15.5 6.21842L15.062 5.42275C13.836 3.19576 12.006 1.68308 9.75452 1.01196C7.6442 0.383423 5.40359 0.835486 3.59965 2.27211C1.64258 3.83144 0.5 6.32681 0.5 9.14387C0.5 12.687 1.97331 16.2399 4.94719 19.7083C7.39222 22.5593 10.8007 25.3034 15.0909 27.8566L15.0916 27.8571C15.2193 27.9333 15.3603 27.9706 15.5 27.9706Z" fill="#FF874F" stroke="#192829"/>
</svg>