<svg width="66" height="53" viewBox="0 0 66 53" fill="none" xmlns="http://www.w3.org/2000/svg">
<g clip-path="url(#clip0_34_7777)">
<path d="M5.67023 48.1876C5.20316 49.6705 5.84395 51.2317 5.1966 52.6444C5.11794 52.8157 4.86391 52.9071 4.73936 53C3.91502 52.9739 3.73966 52.4699 3.71999 51.8679C3.69541 51.1469 3.71508 50.4225 3.69049 49.7015C3.67247 49.1566 3.79866 48.584 3.42828 48.0571C2.63671 47.4535 1.54851 48.0979 0.5865 47.3834C0.0424001 46.9299 0.0604275 46.1322 0.0505944 45.3573C0.0227338 43.0229 -0.00348787 40.6885 -0.000210163 38.354C0.00634526 34.9332 2.11719 32.5743 5.51782 32.1566C5.84395 32.1159 6.19466 32.2088 6.51916 31.9299C6.89282 31.323 6.83218 30.5792 6.89937 29.8744C7.1157 27.6004 8.31862 26.049 10.3836 25.1664C11.6094 24.6428 12.8861 24.2382 14.0923 23.7978C14.5594 23.1779 14.5709 22.5025 14.6561 21.8451C14.8724 20.1925 15.0642 18.5351 15.328 16.8907C15.5214 15.6803 15.8721 14.5074 16.6686 13.4372C14.6905 10.3035 14.797 6.64278 14.094 3.18927C13.7154 1.32467 15.0773 -0.0554282 17.0586 0.097916C19.1105 0.257785 21.1525 0.605257 23.1863 0.949466C29.9614 2.09465 36.7315 2.15012 43.5065 0.965779C45.2093 0.668878 46.9415 0.507378 48.6214 0.117492C51.06 -0.448577 53.0971 1.06855 52.3727 3.94457C51.5762 7.11097 51.2419 10.4111 49.5981 13.4389C50.5618 15.0115 50.9879 16.788 51.3025 18.5955C51.6057 20.3377 51.886 22.0849 52.1875 23.9054C54.1345 24.4894 56.0011 25.0588 57.3745 26.5743C58.7692 28.1126 58.7479 30.018 58.7724 31.7684C59.4116 32.3867 60.0671 32.2447 60.6539 32.2692C64.0201 32.4144 66.0522 34.739 65.9965 38.0686C65.9539 40.6248 65.9703 43.1811 65.9277 45.7374C65.9015 47.3149 65.5409 47.6623 63.9512 47.8026C63.4596 47.8467 62.9384 47.7292 62.396 48.155C62.096 48.7929 62.296 49.5824 62.2353 50.341C62.1796 51.0506 62.3517 51.788 61.9912 52.4291C61.5913 52.8287 61.1947 52.8614 60.685 52.5008C60.0344 51.1599 60.7112 49.6004 60.2867 48.1991C59.8115 47.6966 59.2248 47.8255 58.6823 47.8271C41.594 47.8369 24.5056 47.8532 7.41725 47.8744C6.86824 47.8744 6.29464 47.7863 5.66695 48.1876H5.67023ZM63.7841 45.757C63.907 45.5008 64.0315 45.354 64.0397 45.2039C64.179 42.4862 64.2561 39.7619 64.0381 37.049C63.9184 35.5579 62.9253 34.677 61.488 34.31C60.5588 34.0734 59.605 34.1159 58.6561 34.1142C41.4645 34.1077 24.2712 34.1012 7.07965 34.0947C6.35527 34.0947 5.62926 34.0669 4.91472 34.248C3.31356 34.6526 1.98281 35.9038 1.92217 37.4535C1.81892 40.111 1.76156 42.7782 2.03853 45.434C2.04836 45.5237 2.17619 45.6004 2.31385 45.7553H63.7841V45.757ZM50.4831 2.2741C49.1261 1.97067 49.1278 1.97883 47.8364 2.22679C41.7955 3.38992 35.7236 4.14196 29.55 3.7015C25.9839 3.44702 22.4751 2.8369 18.9663 2.1958C18.0092 2.02124 17.0062 1.6803 15.8819 2.48943C16.608 6.16317 16.2114 10.1893 19.2514 13.3361C18.1452 14.7798 17.1619 16.1713 16.9996 17.9739C16.8489 19.6509 16.3179 21.3002 16.5981 23.1795C27.7374 20.7488 38.7276 20.6526 49.8915 23.354C49.8456 21.3296 49.4555 19.6118 49.2835 17.8728C49.0999 16.0115 47.6282 14.7863 47.0104 12.9919C48.7295 11.7553 49.2146 9.93478 49.5424 8.05224C49.8735 6.15828 50.5732 4.31651 50.4831 2.27573V2.2741ZM9.02825 31.9495C9.28227 32.0294 9.43796 32.1208 9.59365 32.1208C24.7842 32.1615 39.9731 32.1974 55.1637 32.2252C55.5472 32.2252 55.9323 32.1403 56.3158 32.0898C56.3682 32.0832 56.4223 32.0506 56.4633 32.0163C56.5059 31.9821 56.5354 31.9315 56.5698 31.8875C57.1664 29.1517 56.4944 27.7423 54.0214 26.6885C53.2036 26.3394 52.3498 26.0539 51.4877 25.8336C44.9126 24.1452 38.2392 23.2072 31.4363 23.3769C24.7023 23.5449 18.0796 24.416 11.7045 26.7015C8.96105 27.6852 8.3514 28.8956 9.02825 31.9511V31.9495Z" fill="#192829"/>
</g>
<defs>
<clipPath id="clip0_34_7777">
<rect width="66" height="53" fill="white"/>
</clipPath>
</defs>
</svg>
