<svg width="62" height="55" viewBox="0 0 62 55" fill="none" xmlns="http://www.w3.org/2000/svg">
<g clip-path="url(#clip0_34_7799)">
<path d="M1 23H61V47C61 50.866 57.866 54 54 54H8C4.13401 54 1 50.866 1 47V23Z" fill="#F0E0D9"/>
<path d="M41 40.5L34 47L43 50L41 40.5Z" fill="#FF874F" stroke="#192829"/>
<circle cx="51" cy="39" r="4" fill="#FF874F"/>
<rect x="25" y="1" width="12" height="4" fill="#F0E0D9"/>
<path d="M0.5 23H8.5L9 20H13L13.5 22.5H48L48.5 20.5H53V23H61L60 17L58.5 15L55 14H5L1.5 17L0.5 23Z" fill="#FF874F" stroke="#192829"/>
<path d="M54.2873 55.0001H7.71579C3.46138 55.0001 0 51.5718 0 47.3585V20.4595C0 16.2462 3.46138 12.8179 7.71579 12.8179H54.2873C58.5417 12.8179 62.0031 16.2462 62.0031 20.4595V47.3585C62.0031 51.5718 58.5417 55.0001 54.2873 55.0001ZM7.71579 14.6516C4.48766 14.6516 1.85975 17.2581 1.85975 20.4595V47.3585C1.85975 50.5598 4.48766 53.1663 7.71579 53.1663H54.2873C57.5154 53.1663 60.1434 50.5598 60.1434 47.3585V20.4595C60.1434 17.2581 57.5154 14.6516 54.2873 14.6516H7.71579Z" fill="#192829"/>
<path d="M12.7693 27.0309H9.92996C9.02496 27.0309 8.29102 26.3073 8.29102 25.418V20.6374C8.29102 19.7481 9.02807 19.0244 9.92996 19.0244H12.7693C13.6743 19.0244 14.4083 19.7481 14.4083 20.6374V25.418C14.4083 26.3073 13.6712 27.0309 12.7693 27.0309ZM10.1508 25.1972H12.5485V20.8582H10.1508V25.1972Z" fill="#192829"/>
<path d="M52.0696 27.0309H49.2303C48.3253 27.0309 47.5913 26.3073 47.5913 25.418V20.6374C47.5913 19.7481 48.3284 19.0244 49.2303 19.0244H52.0696C52.9746 19.0244 53.7086 19.7481 53.7086 20.6374V25.418C53.7086 26.3073 52.9715 27.0309 52.0696 27.0309ZM49.4511 25.1972H51.8488V20.8582H49.4511V25.1972Z" fill="#192829"/>
<path d="M44.6652 14.6515H38.4857L38.3364 8.48489C38.3178 7.76427 38.2213 7.23378 38.0316 6.81367C37.8202 6.34757 37.2946 6.11452 36.4673 6.11452H25.5296C24.7024 6.11452 24.1768 6.35064 23.9653 6.81367C23.7756 7.23378 23.6792 7.76427 23.6606 8.48489L23.5113 14.6515H17.3318V7.97893C17.3256 7.844 17.2261 3.96493 19.4901 1.65589C20.5693 0.555029 21.9812 0 23.6854 0H38.3022C40.0096 0 41.4215 0.558096 42.5006 1.65589C44.7647 3.96493 44.6621 7.844 44.6589 8.00652V14.6515H44.6652ZM40.3019 12.8178H42.8023V7.97893C42.8023 7.9176 42.8801 4.67022 41.1634 2.92847C40.4387 2.19252 39.5058 1.83374 38.3084 1.83374H23.6916C22.4912 1.83374 21.5551 2.19252 20.8305 2.93153C19.3999 4.3881 19.1667 7.04672 19.1947 7.94826V12.8178H21.6982L21.8039 8.43889C21.8288 7.46683 21.975 6.71248 22.2704 6.06239C22.7929 4.9094 23.9498 4.27771 25.5327 4.27771H36.4704C38.0534 4.27771 39.2103 4.91247 39.7328 6.06239C40.0282 6.71248 40.1744 7.46683 40.1993 8.43889L40.305 12.8147L40.3019 12.8178Z" fill="#192829"/>
<path d="M61.0699 21.7595H0.929688V23.5933H61.0699V21.7595Z" fill="#192829"/>
<path d="M38.3518 6.11452H23.6479V0H38.3518V6.11452ZM25.5077 4.28078H36.492V1.83681H25.5077V4.28078Z" fill="#192829"/>
<path d="M43.7353 50.7008C43.6514 50.7008 43.5674 50.6885 43.4834 50.667L33.8675 48.0054C33.5471 47.9164 33.2983 47.668 33.2175 47.3491C33.1366 47.0333 33.2299 46.696 33.4694 46.466L40.6129 39.5849C40.8493 39.3549 41.1945 39.269 41.5148 39.3579C41.8352 39.4469 42.084 39.6953 42.1648 40.0142L44.6372 49.5539C44.7181 49.8698 44.6248 50.2071 44.3853 50.4371C44.2081 50.6057 43.9748 50.6977 43.7353 50.6977V50.7008ZM35.9231 46.6714L42.4354 48.4745L40.7622 42.0104L35.9231 46.6714Z" fill="#192829"/>
<path d="M50.6518 44.1018C48.0861 44.1018 46.0024 42.0442 46.0024 39.5175C46.0024 36.9907 48.0892 34.9331 50.6518 34.9331C53.2144 34.9331 55.3012 36.9907 55.3012 39.5175C55.3012 42.0442 53.2144 44.1018 50.6518 44.1018ZM50.6518 36.7668C49.1124 36.7668 47.8622 37.9996 47.8622 39.5175C47.8622 41.0354 49.1124 42.2681 50.6518 42.2681C52.1912 42.2681 53.4414 41.0354 53.4414 39.5175C53.4414 37.9996 52.1912 36.7668 50.6518 36.7668Z" fill="#192829"/>
<path d="M53.5117 36.9987L46.9189 40.3899L47.7791 42.0157L54.3718 38.6245L53.5117 36.9987Z" fill="#192829"/>
</g>
<defs>
<clipPath id="clip0_34_7799">
<rect width="62" height="55" fill="white"/>
</clipPath>
</defs>
</svg>
