<svg width="29" height="29" viewBox="0 0 29 29" fill="none" xmlns="http://www.w3.org/2000/svg">
<mask id="path-1-inside-1_34_7991" fill="white">
<path fill-rule="evenodd" clip-rule="evenodd" d="M11.6667 0C10.5621 0 9.66667 0.89543 9.66667 2V9.66667H2C0.895431 9.66667 0 10.5621 0 11.6667V17.3333C0 18.4379 0.895429 19.3333 2 19.3333H9.66667V27C9.66667 28.1046 10.5621 29 11.6667 29H17.3333C18.4379 29 19.3333 28.1046 19.3333 27V19.3333H27C28.1046 19.3333 29 18.4379 29 17.3333V11.6667C29 10.5621 28.1046 9.66667 27 9.66667H19.3333V2C19.3333 0.895431 18.4379 0 17.3333 0H11.6667Z"/>
</mask>
<path fill-rule="evenodd" clip-rule="evenodd" d="M11.6667 0C10.5621 0 9.66667 0.89543 9.66667 2V9.66667H2C0.895431 9.66667 0 10.5621 0 11.6667V17.3333C0 18.4379 0.895429 19.3333 2 19.3333H9.66667V27C9.66667 28.1046 10.5621 29 11.6667 29H17.3333C18.4379 29 19.3333 28.1046 19.3333 27V19.3333H27C28.1046 19.3333 29 18.4379 29 17.3333V11.6667C29 10.5621 28.1046 9.66667 27 9.66667H19.3333V2C19.3333 0.895431 18.4379 0 17.3333 0H11.6667Z" fill="white"/>
<path d="M9.66667 9.66667V10.6667H10.6667V9.66667H9.66667ZM9.66667 19.3333H10.6667V18.3333H9.66667V19.3333ZM19.3333 19.3333V18.3333H18.3333V19.3333H19.3333ZM19.3333 9.66667H18.3333V10.6667H19.3333V9.66667ZM10.6667 2C10.6667 1.44772 11.1144 1 11.6667 1V-1C10.0098 -1 8.66667 0.343145 8.66667 2H10.6667ZM10.6667 9.66667V2H8.66667V9.66667H10.6667ZM2 10.6667H9.66667V8.66667H2V10.6667ZM1 11.6667C1 11.1144 1.44772 10.6667 2 10.6667V8.66667C0.343145 8.66667 -1 10.0098 -1 11.6667H1ZM1 17.3333V11.6667H-1V17.3333H1ZM2 18.3333C1.44771 18.3333 1 17.8856 1 17.3333H-1C-1 18.9902 0.343144 20.3333 2 20.3333V18.3333ZM9.66667 18.3333H2V20.3333H9.66667V18.3333ZM10.6667 27V19.3333H8.66667V27H10.6667ZM11.6667 28C11.1144 28 10.6667 27.5523 10.6667 27H8.66667C8.66667 28.6569 10.0098 30 11.6667 30V28ZM17.3333 28H11.6667V30H17.3333V28ZM18.3333 27C18.3333 27.5523 17.8856 28 17.3333 28V30C18.9902 30 20.3333 28.6569 20.3333 27H18.3333ZM18.3333 19.3333V27H20.3333V19.3333H18.3333ZM27 18.3333H19.3333V20.3333H27V18.3333ZM28 17.3333C28 17.8856 27.5523 18.3333 27 18.3333V20.3333C28.6569 20.3333 30 18.9902 30 17.3333H28ZM28 11.6667V17.3333H30V11.6667H28ZM27 10.6667C27.5523 10.6667 28 11.1144 28 11.6667H30C30 10.0098 28.6569 8.66667 27 8.66667V10.6667ZM19.3333 10.6667H27V8.66667H19.3333V10.6667ZM18.3333 2V9.66667H20.3333V2H18.3333ZM17.3333 1C17.8856 1 18.3333 1.44772 18.3333 2H20.3333C20.3333 0.343145 18.9902 -1 17.3333 -1V1ZM11.6667 1H17.3333V-1H11.6667V1Z" fill="#192829" mask="url(#path-1-inside-1_34_7991)"/>
</svg>
