<svg width="58" height="56" viewBox="0 0 58 56" fill="none" xmlns="http://www.w3.org/2000/svg">
<g clip-path="url(#clip0_34_7655)">
<path d="M50.9468 29.4214C52.311 29.0386 53.5286 28.3585 54.567 27.3975C57.5967 24.5918 58.631 21.0694 57.6374 16.9403C56.8108 13.4953 54.6118 10.9787 51.1057 9.45569C49.0207 8.55168 46.7199 8.22998 44.2766 8.49874C44.1545 8.51096 44.0323 8.53539 43.9061 8.55575C43.4296 8.64127 42.888 8.73493 42.2365 8.47838L42.0899 8.42137L42.0206 8.27885C40.6768 5.56273 38.9909 3.56739 36.8653 2.17472C34.5971 0.692459 32.0031 -0.0323807 29.1159 0.000196381C26.0455 0.0409177 23.4597 0.786118 21.2077 2.27652C18.9558 3.76692 17.5428 5.90072 16.1175 8.64941L15.9872 8.89781L14.619 8.74714C13.9267 8.66977 13.3077 8.60462 12.6887 8.54354C11.1128 8.38472 9.58168 8.51096 8.14827 8.91003C3.00919 10.3353 -0.18747 14.6762 0.00799416 19.9618C0.174953 24.547 3.26166 28.5418 7.51301 29.6738C7.86322 29.7675 8.19714 29.8897 8.55549 30.02C8.72245 30.0811 8.89348 30.1421 9.07266 30.2073L9.32513 30.2928L9.34549 30.5575C9.4025 31.2538 9.46766 31.942 9.52874 32.6261C9.6672 34.0921 9.80565 35.6069 9.85452 37.0933C9.96854 40.5668 10.0174 44.1014 10.0663 47.5179L10.0988 49.8838C10.1111 50.7431 10.1029 51.6145 10.0988 52.4534C10.0948 53.056 10.0866 53.6628 10.0907 54.2655C10.0907 54.355 10.0907 54.4446 10.0907 54.5383C10.0826 55.027 10.0785 55.4586 10.3065 55.8617C10.6852 56.0083 11.1332 56.0043 11.6056 55.9961H11.8784C23.5044 55.988 35.1305 55.9717 46.7606 55.9595H46.8543C47.1719 55.9595 47.4733 55.9595 47.7705 55.931C48.2999 55.878 48.3895 55.7477 48.4343 55.3242C48.4954 54.746 48.4954 54.1433 48.4913 53.618C48.4343 45.8606 48.528 38.9217 48.7682 32.4062C48.7845 31.9298 48.8171 31.4534 48.8537 30.9688C48.87 30.7448 48.8863 30.5208 48.8985 30.2928L48.9148 30.0078L49.8107 29.7471C50.2098 29.629 50.5803 29.5232 50.9509 29.4214H50.9468ZM46.1702 53.6098L46.1213 53.8705L45.8607 53.9315C45.8078 53.9438 45.7507 53.9601 45.6937 53.9804C45.5268 54.0334 45.3354 54.0904 45.1236 54.0904C34.4993 54.1229 23.8791 54.1474 13.2548 54.1637C13.0593 54.1637 12.8964 54.0904 12.762 54.0334C12.7254 54.0171 12.6887 54.0008 12.6521 53.9886L12.4363 53.9153L12.3874 53.6913C12.0494 52.2009 11.9761 48.8047 12.2449 46.842L12.2815 46.5691L12.5462 46.4999C12.6277 46.4795 12.7132 46.4551 12.7987 46.4266C13.0227 46.3574 13.2792 46.28 13.5521 46.2596C14.0977 46.2149 14.6515 46.2149 15.185 46.2189H17.4939C26.1147 46.2271 34.7355 46.2352 43.3563 46.2515C43.5151 46.2515 43.6739 46.2515 43.8287 46.2434C44.5128 46.2271 45.2254 46.2067 45.9258 46.5203L46.1213 46.6058L46.162 46.8135C46.4552 48.3079 46.4552 51.9891 46.1661 53.6058L46.1702 53.6098ZM48.7927 27.6541C48.1004 27.6256 47.4488 27.6011 47.2778 27.7518C47.1149 27.8984 47.0823 28.5133 47.0416 29.2259C46.8787 32.113 46.7281 35.0491 46.5855 37.8873C46.5204 39.1986 46.4512 40.5057 46.386 41.8169C46.3656 42.2364 46.3371 42.6558 46.3086 43.0956L46.2476 44.0811L45.9462 44.1462C45.8078 44.1747 45.6815 44.2073 45.5594 44.2399C45.2947 44.3091 45.0503 44.3702 44.7856 44.3824C44.2115 44.4068 43.6332 44.4109 43.0672 44.4109C42.8799 44.4109 42.6966 44.4109 42.5134 44.4109H42.3138C33.2003 44.3865 24.0827 44.362 14.9692 44.3295C14.4968 44.3295 14.0204 44.3091 13.5154 44.2887C13.267 44.2765 13.0064 44.2684 12.7254 44.2602L12.367 44.248L12.3345 43.8897C12.3019 43.5476 12.2734 43.23 12.2408 42.9286C12.1797 42.3056 12.1268 41.764 12.0901 41.2143C11.9965 39.785 11.911 38.3556 11.8254 36.9263C11.7359 35.44 11.6463 33.9577 11.5485 32.4714C11.4712 31.2945 11.3775 29.8978 11.235 28.4685C11.2024 28.1183 11.1087 27.878 10.9703 27.7762C10.8685 27.7029 10.7056 27.6866 10.4898 27.7355C8.73874 28.1183 7.06507 27.7762 5.5095 26.7134C3.94986 25.6465 2.89109 24.1561 2.36171 22.287C1.8364 20.4179 1.84047 18.5366 2.378 16.7082C3.62816 12.4569 7.91616 9.84255 12.5747 10.49C14.0651 10.6977 15.5108 11.1416 16.8627 11.8053C17.0948 11.9193 17.4125 12.0334 17.5998 11.9397C17.7871 11.846 17.8848 11.5325 17.9337 11.2841C17.9744 11.0764 18.0029 10.8647 18.0314 10.6529C18.064 10.4045 18.0966 10.152 18.1536 9.89548C18.6789 7.47256 19.982 5.52608 22.0263 4.11712C26.412 1.09153 32.6872 1.19333 36.6169 4.34516C38.7466 6.05139 39.8787 7.82277 40.18 9.91584C40.18 9.94028 40.1922 9.96471 40.2004 9.98914L40.2126 10.0421C40.5221 11.2271 40.6727 11.3248 41.8496 11.0968C42.2039 11.0275 42.5582 10.9502 42.9084 10.8728C43.5762 10.7262 44.2685 10.5755 44.9689 10.4859C48.3936 10.0584 51.293 11.0642 53.5856 13.479C56.8678 16.9362 56.823 22.5598 53.496 25.7605C52.0952 27.1043 50.5559 27.7233 48.7886 27.65L48.7927 27.6541Z" fill="#192829"/>
</g>
<defs>
<clipPath id="clip0_34_7655">
<rect width="58" height="56" fill="white"/>
</clipPath>
</defs>
</svg>
