<svg width="58" height="56" viewBox="0 0 58 56" fill="none" xmlns="http://www.w3.org/2000/svg">
<g clip-path="url(#clip0_34_7657)">
<rect x="12" y="45" width="36" height="10" fill="#FF874F"/>
<path d="M11.5 45.5L10 29.5C3.50003 29.5 -0.499967 21.4999 2.00003 14.9999C4.00003 9.79994 12.5 9.49997 16.5 9.99999C17.3334 7.16666 21 1.39999 29 0.999994C37 0.599994 41 6.83333 42 9.99999C48 8.99999 50.5 10.5 54.5 13C58.5 15.5 58 21.5 56.5 24C55.3 26 50.6667 28.1667 48.5 29L47.5 45.5H11.5Z" fill="#F0E0D9"/>
<path d="M50.9468 29.4213C52.311 29.0385 53.5286 28.3585 54.567 27.3975C57.5967 24.5918 58.631 21.0694 57.6374 16.9402C56.8108 13.4952 54.6118 10.9786 51.1057 9.45563C49.0207 8.55162 46.7199 8.22992 44.2766 8.49868C44.1545 8.5109 44.0323 8.53533 43.9061 8.55569C43.4296 8.64121 42.888 8.73486 42.2365 8.47832L42.0899 8.42131L42.0206 8.27879C40.6768 5.56267 38.9909 3.56733 36.8653 2.17466C34.5971 0.692398 32.0031 -0.0324417 29.1159 0.000135346C26.0455 0.0408567 23.4597 0.786057 21.2077 2.27646C18.9558 3.76686 17.5428 5.90066 16.1175 8.64935L15.9872 8.89775L14.619 8.74708C13.9267 8.66971 13.3077 8.60456 12.6887 8.54347C11.1128 8.38466 9.58168 8.5109 8.14827 8.90997C3.00919 10.3352 -0.18747 14.6761 0.00799416 19.9617C0.174953 24.547 3.26166 28.5417 7.51301 29.6738C7.86322 29.7674 8.19714 29.8896 8.55549 30.0199C8.72245 30.081 8.89348 30.1421 9.07266 30.2072L9.32513 30.2927L9.34549 30.5574C9.4025 31.2538 9.46766 31.942 9.52874 32.6261C9.6672 34.092 9.80565 35.6069 9.85452 37.0932C9.96854 40.5667 10.0174 44.1014 10.0663 47.5179L10.0988 49.8838C10.1111 50.743 10.1029 51.6144 10.0988 52.4533C10.0948 53.056 10.0866 53.6627 10.0907 54.2654C10.0907 54.355 10.0907 54.4446 10.0907 54.5382C10.0826 55.0269 10.0785 55.4585 10.3065 55.8617C10.6852 56.0083 11.1332 56.0042 11.6056 55.9961H11.8784C23.5044 55.9879 35.1305 55.9716 46.7606 55.9594H46.8543C47.1719 55.9594 47.4733 55.9594 47.7705 55.9309C48.2999 55.878 48.3895 55.7477 48.4343 55.3242C48.4954 54.7459 48.4954 54.1432 48.4913 53.6179C48.4343 45.8605 48.528 38.9216 48.7682 32.4062C48.7845 31.9297 48.8171 31.4533 48.8537 30.9687C48.87 30.7448 48.8863 30.5208 48.8985 30.2927L48.9148 30.0077L49.8107 29.7471C50.2098 29.629 50.5803 29.5231 50.9509 29.4213H50.9468ZM46.1702 53.6098L46.1213 53.8704L45.8607 53.9315C45.8078 53.9437 45.7507 53.96 45.6937 53.9804C45.5268 54.0333 45.3354 54.0903 45.1236 54.0903C34.4993 54.1229 23.8791 54.1473 13.2548 54.1636C13.0593 54.1636 12.8964 54.0903 12.762 54.0333C12.7254 54.017 12.6887 54.0007 12.6521 53.9885L12.4363 53.9152L12.3874 53.6912C12.0494 52.2008 11.9761 48.8047 12.2449 46.8419L12.2815 46.5691L12.5462 46.4998C12.6277 46.4795 12.7132 46.455 12.7987 46.4265C13.0227 46.3573 13.2792 46.2799 13.5521 46.2596C14.0977 46.2148 14.6515 46.2148 15.185 46.2189H17.4939C26.1147 46.227 34.7355 46.2352 43.3563 46.2514C43.5151 46.2514 43.6739 46.2514 43.8287 46.2433C44.5128 46.227 45.2254 46.2066 45.9258 46.5202L46.1213 46.6057L46.162 46.8134C46.4552 48.3079 46.4552 51.9891 46.1661 53.6057L46.1702 53.6098ZM48.7927 27.654C48.1004 27.6255 47.4488 27.6011 47.2778 27.7517C47.1149 27.8983 47.0823 28.5132 47.0416 29.2258C46.8787 32.113 46.7281 35.049 46.5855 37.8873C46.5204 39.1985 46.4512 40.5057 46.386 41.8169C46.3656 42.2363 46.3371 42.6557 46.3086 43.0955L46.2476 44.081L45.9462 44.1461C45.8078 44.1747 45.6815 44.2072 45.5594 44.2398C45.2947 44.309 45.0503 44.3701 44.7856 44.3823C44.2115 44.4068 43.6332 44.4108 43.0672 44.4108C42.8799 44.4108 42.6966 44.4108 42.5134 44.4108H42.3138C33.2003 44.3864 24.0827 44.362 14.9692 44.3294C14.4968 44.3294 14.0204 44.309 13.5154 44.2887C13.267 44.2765 13.0064 44.2683 12.7254 44.2602L12.367 44.248L12.3345 43.8896C12.3019 43.5475 12.2734 43.2299 12.2408 42.9286C12.1797 42.3055 12.1268 41.764 12.0901 41.2142C11.9965 39.7849 11.911 38.3556 11.8254 36.9263C11.7359 35.4399 11.6463 33.9577 11.5485 32.4713C11.4712 31.2945 11.3775 29.8977 11.235 28.4684C11.2024 28.1182 11.1087 27.878 10.9703 27.7762C10.8685 27.7029 10.7056 27.6866 10.4898 27.7354C8.73874 28.1182 7.06507 27.7762 5.5095 26.7133C3.94986 25.6464 2.89109 24.156 2.36171 22.2869C1.8364 20.4178 1.84047 18.5365 2.378 16.7081C3.62816 12.4568 7.91616 9.84249 12.5747 10.49C14.0651 10.6976 15.5108 11.1415 16.8627 11.8053C17.0948 11.9193 17.4125 12.0333 17.5998 11.9396C17.7871 11.846 17.8848 11.5324 17.9337 11.284C17.9744 11.0763 18.0029 10.8646 18.0314 10.6528C18.064 10.4044 18.0966 10.152 18.1536 9.89542C18.6789 7.4725 19.982 5.52602 22.0263 4.11706C26.412 1.09147 32.6872 1.19327 36.6169 4.3451C38.7466 6.05133 39.8787 7.82271 40.18 9.91578C40.18 9.94022 40.1922 9.96465 40.2004 9.98908L40.2126 10.042C40.5221 11.227 40.6727 11.3247 41.8496 11.0967C42.2039 11.0275 42.5582 10.9501 42.9084 10.8727C43.5762 10.7261 44.2685 10.5755 44.9689 10.4859C48.3936 10.0583 51.293 11.0641 53.5856 13.4789C56.8678 16.9361 56.823 22.5598 53.496 25.7605C52.0952 27.1043 50.5559 27.7232 48.7886 27.6499L48.7927 27.654Z" fill="#192829"/>
</g>
<defs>
<clipPath id="clip0_34_7657">
<rect width="58" height="56" fill="white"/>
</clipPath>
</defs>
</svg>
