<svg width="69" height="58" viewBox="0 0 69 58" fill="none" xmlns="http://www.w3.org/2000/svg">
<g clip-path="url(#clip0_34_7669)">
<path d="M62.5943 51.5179H58.812V49.7249H62.5943C64.0467 49.7249 65.1907 49.7249 66.1549 48.9244C66.9216 48.2858 67.263 47.2065 67.2001 45.6234C67.1342 43.9864 66.6491 42.1785 66.2568 40.7244C66.1549 40.3466 66.0621 39.9988 65.9812 39.681C65.577 38.053 64.9271 36.0292 63.4957 34.8239C63.1603 34.5421 62.756 34.2873 62.2259 34.0174C61.6031 33.7026 60.8873 33.6097 60.1267 33.5077C59.2702 33.3938 58.2969 33.2649 57.3656 32.7852C55.9072 32.0356 54.8471 30.8873 54.1194 29.2803C53.778 28.5217 53.4875 27.7452 53.209 26.9957C53.0713 26.6269 52.9365 26.2581 52.7928 25.8923C52.5322 25.2207 52.2956 24.5371 52.071 23.8745C51.6189 22.5553 51.1936 21.3081 50.5647 20.1508C49.9418 19.0055 48.708 17.5304 47.2826 17.1496C46.4351 16.9247 45.6685 16.8078 45.0096 16.8078H26.1463C22.5347 16.8078 20.8996 17.5993 20.1659 18.2619C19.5251 18.8406 18.9261 19.5961 18.3332 20.5765C17.6534 21.6979 17.2521 22.8761 16.8299 24.1204C16.6352 24.696 16.4316 25.2897 16.198 25.8923C16.0542 26.2611 15.9135 26.6359 15.7757 27.0077C15.3265 28.2189 14.8594 29.4692 14.1916 30.6445C13.2722 32.2665 11.7629 33.2529 9.71155 33.5767C9.40011 33.6247 9.09465 33.6666 8.79519 33.7056C7.48952 33.8765 6.45636 34.0114 5.49507 34.8239C3.4617 36.5329 2.6741 39.648 2.37164 41.9596C2.31474 42.4004 2.23089 42.8681 2.14404 43.3568C1.76372 45.4975 1.37142 47.7102 2.83581 48.9274C3.80009 49.7279 4.94405 49.7279 6.39646 49.7279H10.3105V51.5209H6.39646C4.8033 51.5209 3.15325 51.5209 1.69185 50.3066C-0.575108 48.4237 -0.045053 45.4405 0.380189 43.045C0.461045 42.5863 0.541901 42.1425 0.595805 41.7288C0.940191 39.1024 1.86854 35.5345 4.34213 33.4538C5.7047 32.3055 7.15711 32.1166 8.5616 31.9307C8.8461 31.8947 9.13358 31.8557 9.43006 31.8078C10.9394 31.5679 11.9875 30.8993 12.6343 29.76C13.2303 28.7076 13.6525 27.5773 14.0987 26.381C14.2395 26.0003 14.3832 25.6165 14.53 25.2387C14.7516 24.6751 14.9462 24.0994 15.1349 23.5417C15.5721 22.2615 16.0213 20.9363 16.8029 19.6471C17.4887 18.5168 18.1954 17.6263 18.9681 16.9307C20.3755 15.6595 22.7922 15.0149 26.1493 15.0149H45.0156C45.8421 15.0149 46.7375 15.1468 47.7497 15.4166C49.7232 15.9443 51.3134 17.7642 52.1429 19.2933C52.8467 20.5855 53.3168 21.9617 53.772 23.2929C53.9936 23.9375 54.2212 24.6031 54.4668 25.2387C54.6135 25.6135 54.7543 25.9913 54.895 26.369C55.1765 27.1246 55.44 27.8382 55.7575 28.5397C56.3175 29.781 57.0901 30.6205 58.1921 31.1871C58.848 31.5259 59.5876 31.6249 60.3722 31.7268C61.2437 31.8437 62.1451 31.9637 63.0405 32.4134C63.6993 32.7462 64.2144 33.073 64.6576 33.4478C66.4844 34.9858 67.26 37.3514 67.7301 39.2433C67.805 39.5491 67.8978 39.8879 67.9967 40.2537C68.4099 41.7947 68.928 43.7106 68.9999 45.5485C69.0837 47.6982 68.5147 49.2992 67.3079 50.3006C65.8465 51.5149 64.1994 51.5149 62.6033 51.5149L62.5943 51.5179Z" fill="#192829"/>
<path d="M45.8601 49.725H23.2563V51.5179H45.8601V49.725Z" fill="#192829"/>
<path d="M47.822 34.1644C46.6061 34.1644 45.3873 34.1494 44.1715 34.1344C42.9616 34.1194 41.7518 34.1044 40.542 34.1044H28.4645C27.2546 34.1044 26.0448 34.1194 24.8349 34.1344C23.4993 34.1494 22.1667 34.1674 20.8311 34.1644C19.4026 34.1614 18.3545 33.7177 17.8005 32.8812C16.959 31.6129 17.4471 30.0959 17.8065 28.9895L17.9173 28.6447C18.067 28.162 18.2048 27.6763 18.3455 27.1876C18.5761 26.3811 18.8127 25.5506 19.0972 24.7381C20.343 21.1642 22.2386 19.3503 24.7331 19.3503H44.2793C46.7738 19.3503 48.6725 21.1642 49.9182 24.7381C50.1997 25.5506 50.4393 26.3811 50.6699 27.1876C50.8076 27.6733 50.9484 28.162 51.0981 28.6447L51.2089 28.9895C51.5653 30.0959 52.0564 31.6129 51.2149 32.8812C50.6609 33.7177 49.6128 34.1584 48.1843 34.1644C48.0675 34.1644 47.9477 34.1644 47.831 34.1644H47.822ZM24.7271 21.1433C23.0531 21.1433 21.7624 22.5134 20.7802 25.3287C20.5137 26.0933 20.2831 26.8998 20.0615 27.6823C19.9177 28.18 19.777 28.6807 19.6242 29.1754L19.5074 29.5442C19.2469 30.3447 18.9265 31.3431 19.2888 31.8888C19.4865 32.1886 20.0645 32.3685 20.8311 32.3715C22.1547 32.3715 23.4814 32.3595 24.808 32.3415C26.0268 32.3265 27.2427 32.3115 28.4615 32.3115H40.539C41.7548 32.3115 42.9736 32.3265 44.1924 32.3415C45.5191 32.3595 46.8487 32.3745 48.1694 32.3715C48.936 32.3715 49.514 32.1886 49.7146 31.8888C50.077 31.3401 49.7565 30.3447 49.496 29.5442L49.3792 29.1754C49.2265 28.6807 49.0827 28.18 48.942 27.6823C48.7204 26.9028 48.4898 26.0933 48.2233 25.3317C47.241 22.5164 45.9503 21.1463 44.2763 21.1463H24.7301L24.7271 21.1433Z" fill="#192829"/>
<path d="M52.3376 58C48.2739 58 44.9678 54.69 44.9678 50.6215C44.9678 46.5529 48.2739 43.2429 52.3376 43.2429C56.4014 43.2429 59.7075 46.5529 59.7075 50.6215C59.7075 54.69 56.4014 58 52.3376 58ZM52.3376 45.0328C49.2621 45.0328 46.7586 47.5393 46.7586 50.6185C46.7586 53.6976 49.2621 56.2041 52.3376 56.2041C55.4132 56.2041 57.9167 53.6976 57.9167 50.6185C57.9167 47.5393 55.4132 45.0328 52.3376 45.0328Z" fill="#192829"/>
<path d="M17.1833 58C13.1196 58 9.81348 54.69 9.81348 50.6215C9.81348 46.5529 13.1196 43.2429 17.1833 43.2429C21.2471 43.2429 24.5532 46.5529 24.5532 50.6215C24.5532 54.69 21.2471 58 17.1833 58ZM17.1833 45.0328C14.1078 45.0328 11.6043 47.5393 11.6043 50.6185C11.6043 53.6976 14.1078 56.2041 17.1833 56.2041C20.2589 56.2041 22.7624 53.6976 22.7624 50.6185C22.7624 47.5393 20.2589 45.0328 17.1833 45.0328Z" fill="#192829"/>
<path d="M35.3968 20.8374H33.606V33.2079H35.3968V20.8374Z" fill="#192829"/>
<path d="M33.3607 39.1145H29.0634C28.5693 39.1145 28.168 38.7127 28.168 38.218C28.168 37.7233 28.5693 37.3215 29.0634 37.3215H33.3607C33.8548 37.3215 34.2561 37.7233 34.2561 38.218C34.2561 38.7127 33.8548 39.1145 33.3607 39.1145Z" fill="#192829"/>
<path d="M37.8673 12.3405H32.3661C31.872 12.3405 31.4707 11.9388 31.4707 11.4441C31.4707 10.9494 31.872 10.5476 32.3661 10.5476H37.8673C38.3614 10.5476 38.7627 10.9494 38.7627 11.4441C38.7627 11.9388 38.3614 12.3405 37.8673 12.3405Z" fill="#192829"/>
<path d="M52.3376 54.708C50.0857 54.708 48.2529 52.8731 48.2529 50.6185C48.2529 48.3638 50.0857 46.5289 52.3376 46.5289C54.5896 46.5289 56.4224 48.3638 56.4224 50.6185C56.4224 52.8731 54.5896 54.708 52.3376 54.708ZM52.3376 48.3248C51.0739 48.3248 50.0437 49.3562 50.0437 50.6215C50.0437 51.8867 51.0739 52.9181 52.3376 52.9181C53.6014 52.9181 54.6316 51.8867 54.6316 50.6215C54.6316 49.3562 53.6014 48.3248 52.3376 48.3248Z" fill="#192829"/>
<path d="M17.1834 54.708C14.9314 54.708 13.0986 52.8731 13.0986 50.6185C13.0986 48.3638 14.9314 46.5289 17.1834 46.5289C19.4353 46.5289 21.2681 48.3638 21.2681 50.6185C21.2681 52.8731 19.4353 54.708 17.1834 54.708ZM17.1834 48.3248C15.9196 48.3248 14.8894 49.3562 14.8894 50.6215C14.8894 51.8867 15.9196 52.9181 17.1834 52.9181C18.4471 52.9181 19.4773 51.8867 19.4773 50.6215C19.4773 49.3562 18.4471 48.3248 17.1834 48.3248Z" fill="#192829"/>
<path d="M12.1374 45.1677H1.46143V46.9606H12.1374V45.1677Z" fill="#192829"/>
<path d="M47.7319 45.1677H21.7861V46.9606H47.7319V45.1677Z" fill="#192829"/>
<path d="M68.1045 45.1677H56.9434V46.9606H68.1045V45.1677Z" fill="#192829"/>
<path d="M63.4178 46.0642H61.627V41.2551C61.627 40.7604 62.0282 40.3586 62.5224 40.3586H67.3258V42.1516H63.4178V46.0642Z" fill="#192829"/>
<path d="M44.1984 16.8109H25.323C23.1579 16.8109 21.394 15.0449 21.394 12.8772V10.008C21.394 7.84028 23.1579 6.07434 25.323 6.07434H44.1984C46.3635 6.07434 48.1274 7.84028 48.1274 10.008V12.8772C48.1274 15.0449 46.3635 16.8109 44.1984 16.8109ZM25.323 7.86726C24.1431 7.86726 23.1848 8.82668 23.1848 10.008V12.8772C23.1848 14.0585 24.1431 15.0179 25.323 15.0179H44.1984C45.3783 15.0179 46.3366 14.0585 46.3366 12.8772V10.008C46.3366 8.82668 45.3783 7.86726 44.1984 7.86726H25.323Z" fill="#192829"/>
<path d="M42.8026 7.86725H28.2605C26.4787 7.86725 25.0293 6.53905 25.0293 4.90804V2.95921C25.0293 1.3282 26.4787 0 28.2605 0H42.8026C44.5844 0 46.0339 1.3282 46.0339 2.95921V4.90804C46.0339 6.53905 44.5844 7.86725 42.8026 7.86725ZM28.2605 1.79292C27.467 1.79292 26.8201 2.3176 26.8201 2.95921V4.90804C26.8201 5.55265 27.467 6.07433 28.2605 6.07433H42.8026C43.5962 6.07433 44.243 5.54965 44.243 4.90804V2.95921C44.243 2.3176 43.5962 1.79292 42.8026 1.79292H28.2605Z" fill="#192829"/>
<path d="M29.9558 0.896484H28.165V15.9144H29.9558V0.896484Z" fill="#192829"/>
<path d="M41.6707 0.896484H39.8799V15.9144H41.6707V0.896484Z" fill="#192829"/>
</g>
<defs>
<clipPath id="clip0_34_7669">
<rect width="69" height="58" fill="white"/>
</clipPath>
</defs>
</svg>
